<svg xmlns="http://www.w3.org/2000/svg" viewBox="190 48 475 48" preserveAspectRatio="xMidYMid meet">
  <g fill="currentColor">
    <g transform="translate(196,91.6)"><path d="M32.25-37.94c1.38 0 2.66.34 3.81 1.03 1.16.68 2.07 1.6 2.75 2.75.68 1.15 1.02 2.42 1.02 3.81v7.58c0 1.39-.34 2.66-1.02 3.81-.68 1.15-1.6 2.07-2.75 2.75-1.15.68-2.42 1.02-3.81 1.02H9.48v15.17H1.89v-37.94zM9.48-22.77h22.77v-7.58H9.48z"/></g>
    <g transform="translate(243,91.6)"><path d="M39.83 0H1.89v-7.59h15.19v-22.75H1.89v-7.59h37.94v7.59H24.66v22.75h15.17z"/></g>
    <g transform="translate(290,91.6)"><path d="M9.48 0H1.89v-34.14c0-1.04.37-1.93 1.11-2.67.75-.75 1.64-1.12 2.69-1.12 1.04 0 1.94.38 2.7 1.14L32.25-12.95V-37.94h7.58v34.14c0 1.04-.37 1.94-1.11 2.69-.74.74-1.63 1.11-2.67 1.11-1.05 0-1.95-.38-2.7-1.14L9.48-24.98z"/></g>
    <g transform="translate(338,91.6)"><path d="M39.83-37.94v7.59H9.48v7.58h30.35v7.59H9.48v7.58h30.35V0H9.48c-1.39 0-2.67-.34-3.83-1.02-1.15-.69-2.07-1.6-2.75-2.75-.68-1.16-1.02-2.43-1.02-3.82v-22.75c0-1.39.34-2.66 1.02-3.81.68-1.16 1.6-2.07 2.75-2.75 1.16-.69 2.44-1.03 3.83-1.03z"/></g>
    <g transform="translate(385,91.6)"><path d="M39.83-37.94v7.59H24.66V0h-7.58v-30.35H1.89v-7.59z"/></g>
    <g transform="translate(432,91.6)"><path d="M32.25 0H9.48c-1.39 0-2.67-.34-3.83-1.02-1.15-.69-2.07-1.6-2.75-2.75-.68-1.16-1.02-2.43-1.02-3.82v-30.35h7.59v30.35H32.25v-30.35h7.58v30.35c0 1.39-.34 2.66-1.02 3.81-.68 1.16-1.6 2.07-2.75 2.75-1.15.69-2.43 1.03-3.81 1.03z"/></g>
    <g transform="translate(479,91.6)"><path d="M9.48 0H1.89v-34.14c0-1.04.37-1.93 1.11-2.67.75-.75 1.64-1.12 2.69-1.12 1.04 0 1.94.38 2.7 1.14L32.25-12.95V-37.94h7.58v34.14c0 1.04-.37 1.94-1.11 2.69-.74.74-1.63 1.11-2.67 1.11-1.05 0-1.95-.38-2.7-1.14L9.48-24.98z"/></g>
    <g transform="translate(526,91.6)"><path d="M9.48 0H1.89v-34.14c0-1.04.37-1.93 1.11-2.67.75-.75 1.64-1.12 2.69-1.12 1.04 0 1.94.38 2.7 1.14L32.25-12.95V-37.94h7.58v34.14c0 1.04-.37 1.94-1.11 2.69-.74.74-1.63 1.11-2.67 1.11-1.05 0-1.95-.38-2.7-1.14L9.48-24.98z"/></g>
    <g transform="translate(574,91.6)"><path d="M39.83-37.94v7.59H9.48v7.58h30.35v7.59H9.48v7.58h30.35V0H9.48c-1.39 0-2.67-.34-3.83-1.02-1.15-.69-2.07-1.6-2.75-2.75-.68-1.16-1.02-2.43-1.02-3.82v-22.75c0-1.39.34-2.66 1.02-3.81.68-1.16 1.6-2.07 2.75-2.75 1.16-.69 2.44-1.03 3.83-1.03z"/></g>
    <g transform="translate(621,91.6)"><path d="M39.83 0H9.48c-1.39 0-2.67-.34-3.83-1.02-1.15-.69-2.07-1.6-2.75-2.75-.68-1.16-1.02-2.43-1.02-3.82v-30.35h7.59v30.35h30.35z"/></g>
  </g>
</svg>
