<svg xmlns="http://www.w3.org/2000/svg" xmlns:xlink="http://www.w3.org/1999/xlink" width="1145" zoomAndPan="magnify" viewBox="0 0 858.75 147.000002" height="196" preserveAspectRatio="xMidYMid meet" version="1.0"><defs><g/><clipPath id="888f29e6b3"><path d="M 2.777344 0 L 855.726562 0 L 855.726562 146.007812 L 2.777344 146.007812 Z M 2.777344 0 " clip-rule="nonzero"/></clipPath></defs><g clip-path="url(#888f29e6b3)"><path fill="#ffffff" d="M 2.777344 0 L 855.726562 0 L 855.726562 146.007812 L 2.777344 146.007812 Z M 2.777344 0 " fill-opacity="1" fill-rule="nonzero"/><path fill="#0d1117" d="M 2.777344 0 L 855.726562 0 L 855.726562 146.007812 L 2.777344 146.007812 Z M 2.777344 0 " fill-opacity="1" fill-rule="nonzero"/></g><g fill="#ffffff" fill-opacity="1"><g transform="translate(196.060872, 91.626694)"><g><path d="M 32.25 -37.9375 C 33.632812 -37.9375 34.90625 -37.59375 36.0625 -36.90625 C 37.21875 -36.226562 38.132812 -35.3125 38.8125 -34.15625 C 39.488281 -33.007812 39.828125 -31.738281 39.828125 -30.34375 L 39.828125 -22.765625 C 39.828125 -21.367188 39.488281 -20.09375 38.8125 -18.9375 C 38.132812 -17.789062 37.21875 -16.875 36.0625 -16.1875 C 34.90625 -15.507812 33.632812 -15.171875 32.25 -15.171875 L 9.484375 -15.171875 L 9.484375 0 L 1.890625 0 L 1.890625 -37.9375 Z M 9.484375 -22.765625 L 32.25 -22.765625 L 32.25 -30.34375 L 9.484375 -30.34375 Z M 9.484375 -22.765625 "/></g></g></g><g fill="#ffffff" fill-opacity="1"><g transform="translate(243.244196, 91.626694)"><g><path d="M 39.828125 0 L 1.890625 0 L 1.890625 -7.59375 L 17.078125 -7.59375 L 17.078125 -30.34375 L 1.890625 -30.34375 L 1.890625 -37.9375 L 39.828125 -37.9375 L 39.828125 -30.34375 L 24.65625 -30.34375 L 24.65625 -7.59375 L 39.828125 -7.59375 Z M 39.828125 0 "/></g></g></g><g fill="#ffffff" fill-opacity="1"><g transform="translate(290.427519, 91.626694)"><g><path d="M 9.484375 0 L 1.890625 0 L 1.890625 -34.140625 C 1.890625 -35.179688 2.257812 -36.070312 3 -36.8125 C 3.75 -37.5625 4.644531 -37.9375 5.6875 -37.9375 C 6.726562 -37.9375 7.628906 -37.554688 8.390625 -36.796875 L 32.25 -12.953125 L 32.25 -37.9375 L 39.828125 -37.9375 L 39.828125 -3.796875 C 39.828125 -2.753906 39.457031 -1.859375 38.71875 -1.109375 C 37.976562 -0.367188 37.085938 0 36.046875 0 C 34.992188 0 34.09375 -0.378906 33.34375 -1.140625 L 9.484375 -24.984375 Z M 9.484375 0 "/></g></g></g><g fill="#ffffff" fill-opacity="1"><g transform="translate(337.610842, 91.626694)"><g><path d="M 39.828125 -37.9375 L 39.828125 -30.34375 L 9.484375 -30.34375 L 9.484375 -22.765625 L 39.828125 -22.765625 L 39.828125 -15.171875 L 9.484375 -15.171875 L 9.484375 -7.59375 L 39.828125 -7.59375 L 39.828125 0 L 9.484375 0 C 8.085938 0 6.8125 -0.335938 5.65625 -1.015625 C 4.507812 -1.703125 3.59375 -2.617188 2.90625 -3.765625 C 2.226562 -4.921875 1.890625 -6.195312 1.890625 -7.59375 L 1.890625 -30.34375 C 1.890625 -31.738281 2.226562 -33.007812 2.90625 -34.15625 C 3.59375 -35.3125 4.507812 -36.226562 5.65625 -36.90625 C 6.8125 -37.59375 8.085938 -37.9375 9.484375 -37.9375 Z M 39.828125 -37.9375 "/></g></g></g><g fill="#ffffff" fill-opacity="1"><g transform="translate(384.794165, 91.626694)"><g><path d="M 39.828125 -37.9375 L 39.828125 -30.34375 L 24.65625 -30.34375 L 24.65625 0 L 17.078125 0 L 17.078125 -30.34375 L 1.890625 -30.34375 L 1.890625 -37.9375 Z M 39.828125 -37.9375 "/></g></g></g><g fill="#ffffff" fill-opacity="1"><g transform="translate(431.977476, 91.626694)"><g><path d="M 32.25 0 L 9.484375 0 C 8.085938 0 6.8125 -0.335938 5.65625 -1.015625 C 4.507812 -1.703125 3.59375 -2.617188 2.90625 -3.765625 C 2.226562 -4.921875 1.890625 -6.195312 1.890625 -7.59375 L 1.890625 -37.9375 L 9.484375 -37.9375 L 9.484375 -7.59375 L 32.25 -7.59375 L 32.25 -37.9375 L 39.828125 -37.9375 L 39.828125 -7.59375 C 39.828125 -6.195312 39.488281 -4.921875 38.8125 -3.765625 C 38.132812 -2.617188 37.21875 -1.703125 36.0625 -1.015625 C 34.90625 -0.335938 33.632812 0 32.25 0 Z M 32.25 0 "/></g></g></g><g fill="#ffffff" fill-opacity="1"><g transform="translate(479.160811, 91.626694)"><g><path d="M 9.484375 0 L 1.890625 0 L 1.890625 -34.140625 C 1.890625 -35.179688 2.257812 -36.070312 3 -36.8125 C 3.75 -37.5625 4.644531 -37.9375 5.6875 -37.9375 C 6.726562 -37.9375 7.628906 -37.554688 8.390625 -36.796875 L 32.25 -12.953125 L 32.25 -37.9375 L 39.828125 -37.9375 L 39.828125 -3.796875 C 39.828125 -2.753906 39.457031 -1.859375 38.71875 -1.109375 C 37.976562 -0.367188 37.085938 0 36.046875 0 C 34.992188 0 34.09375 -0.378906 33.34375 -1.140625 L 9.484375 -24.984375 Z M 9.484375 0 "/></g></g></g><g fill="#ffffff" fill-opacity="1"><g transform="translate(526.344145, 91.626694)"><g><path d="M 9.484375 0 L 1.890625 0 L 1.890625 -34.140625 C 1.890625 -35.179688 2.257812 -36.070312 3 -36.8125 C 3.75 -37.5625 4.644531 -37.9375 5.6875 -37.9375 C 6.726562 -37.9375 7.628906 -37.554688 8.390625 -36.796875 L 32.25 -12.953125 L 32.25 -37.9375 L 39.828125 -37.9375 L 39.828125 -3.796875 C 39.828125 -2.753906 39.457031 -1.859375 38.71875 -1.109375 C 37.976562 -0.367188 37.085938 0 36.046875 0 C 34.992188 0 34.09375 -0.378906 33.34375 -1.140625 L 9.484375 -24.984375 Z M 9.484375 0 "/></g></g></g><g fill="#ffffff" fill-opacity="1"><g transform="translate(573.527456, 91.626694)"><g><path d="M 39.828125 -37.9375 L 39.828125 -30.34375 L 9.484375 -30.34375 L 9.484375 -22.765625 L 39.828125 -22.765625 L 39.828125 -15.171875 L 9.484375 -15.171875 L 9.484375 -7.59375 L 39.828125 -7.59375 L 39.828125 0 L 9.484375 0 C 8.085938 0 6.8125 -0.335938 5.65625 -1.015625 C 4.507812 -1.703125 3.59375 -2.617188 2.90625 -3.765625 C 2.226562 -4.921875 1.890625 -6.195312 1.890625 -7.59375 L 1.890625 -30.34375 C 1.890625 -31.738281 2.226562 -33.007812 2.90625 -34.15625 C 3.59375 -35.3125 4.507812 -36.226562 5.65625 -36.90625 C 6.8125 -37.59375 8.085938 -37.9375 9.484375 -37.9375 Z M 39.828125 -37.9375 "/></g></g></g><g fill="#ffffff" fill-opacity="1"><g transform="translate(620.710768, 91.626694)"><g><path d="M 39.828125 0 L 9.484375 0 C 8.085938 0 6.8125 -0.335938 5.65625 -1.015625 C 4.507812 -1.703125 3.59375 -2.617188 2.90625 -3.765625 C 2.226562 -4.921875 1.890625 -6.195312 1.890625 -7.59375 L 1.890625 -37.9375 L 9.484375 -37.9375 L 9.484375 -7.59375 L 39.828125 -7.59375 Z M 39.828125 0 "/></g></g></g></svg>
